{"title":"Fall Out Boy - Young Volcanoes [Explicit] 1080p [Sbyky]","uid":10127591,"size":66619256,"categoryP":"video","categoryS":"music_videos","magnet":"?xt=urn:btih:3912c74b4067aa3cb2b255df3c18dc0cb64944b9&amp;dn=Fall+Out+Boy+-+Young+Volcanoes+%5BExplicit%5D+1080p+%5BSbyky%5D&amp;tr=udp%3A%2F%2Ftracker.openbittorrent.com%3A80&amp;tr=udp%3A%2F%2Fopen.demonii.com%3A1337&amp;tr=udp%3A%2F%2Ftracker.coppersurfer.tk%3A6969&amp;tr=udp%3A%2F%2Fexodus.desync.com%3A6969","seeders":2,"leechers":0,"uploader":"Sbyky","files":1,"time":1399796097,"description":"\n\nGeneral\nComplete name                            : Fall Out Boy - Young Volcanoes [Explicit] 1080p [Sbyky].mp4\nFormat                                   : MPEG-4\nFormat profile                           : Base Media\nCodec ID                                 : isom\nFile size                                : 63.5 MiB\nDuration                                 : 3mn 39s\nOverall bit rate mode                    : Variable\nOverall bit rate                         : 2 430 Kbps\nEncoded date                             : UTC 2013-11-26 05:56:53\nTagged date                              : UTC 2013-11-26 05:56:53\n\nVideo\nID                                       : 1\nFormat                                   : AVC\nFormat/Info                              : Advanced Video Codec\nFormat profile                           : &lt;a class=&quot;__cf_email__&quot; href=&quot;/cdn-cgi/l/email-protection&quot; data-cfemail=&quot;175f7e707f575b233927&quot;&gt;[email&amp;#160;protected]&lt;/a&gt;&lt;script cf-hash='f9e31' type=&quot;text/javascript&quot;&gt;\n/* &lt;![CDATA[ */!function(){try{var t=&quot;currentScript&quot;in document?document.currentScript:function(){for(var t=document.getElementsByTagName(&quot;script&quot;),e=t.length;e--;)if(t[e].getAttribute(&quot;cf-hash&quot;))return t[e]}();if(t&amp;&amp;t.previousSibling){var e,r,n,i,c=t.previousSibling,a=c.getAttribute(&quot;data-cfemail&quot;);if(a){for(e=&quot;&quot;,r=parseInt(a.substr(0,2),16),n=2;a.length-n;n+=2)i=parseInt(a.substr(n,2),16)^r,e+=String.fromCharCode(i);e=document.createTextNode(e),c.parentNode.replaceChild(e,c)}}}catch(u){}}();/* ]]&gt; */&lt;/script&gt;\nFormat settings, CABAC                   : Yes\nFormat settings, ReFrames                : 3 frames\nCodec ID                                 : avc1\nCodec ID/Info                            : Advanced Video Coding\nDuration                                 : 3mn 39s\nBit rate                                 : 2 302 Kbps\nWidth                                    : 1 920 pixels\nHeight                                   : 1 080 pixels\nDisplay aspect ratio                     : 16:9\nFrame rate mode                          : Constant\nFrame rate                               : 23.976 fps\nColor space                              : YUV\nChroma subsampling                       : 4:2:0\nBit depth                                : 8 bits\nScan type                                : Progressive\nBits/(Pixel*Frame)                       : 0.046\nStream size                              : 60.2 MiB (95%)\nEncoded date                             : UTC 2013-11-26 05:56:53\nTagged date                              : UTC 2013-11-26 05:56:53\n\nAudio\nID                                       : 2\nFormat                                   : AAC\nFormat/Info                              : Advanced Audio Codec\nFormat profile                           : LC\nCodec ID                                 : 40\nDuration                                 : 3mn 39s\nBit rate mode                            : Variable\nBit rate                                 : 126 Kbps\nChannel(s)                               : 2 channels\nChannel positions                        : Front: L R\nSampling rate                            : 44.1 KHz\nCompression mode                         : Lossy\nStream size                              : 3.28 MiB (5%)\nEncoded date                             : UTC 2013-11-26 05:55:53\nTagged date                              : UTC 2013-11-26 05:55:53\n\nShared By Sbyky\n","torrent":{"xt":"urn:btih:3912c74b4067aa3cb2b255df3c18dc0cb64944b9","amp;dn":"Fall+Out+Boy+-+Young+Volcanoes+%5BExplicit%5D+1080p+%5BSbyky%5D","amp;tr":["udp%3A%2F%2Ftracker.openbittorrent.com%3A80","udp%3A%2F%2Fopen.demonii.com%3A1337","udp%3A%2F%2Ftracker.coppersurfer.tk%3A6969","udp%3A%2F%2Fexodus.desync.com%3A6969"],"infoHash":"3912c74b4067aa3cb2b255df3c18dc0cb64944b9","infoHashBuffer":{"type":"Buffer","data":[57,18,199,75,64,103,170,60,178,178,85,223,60,24,220,12,182,73,68,185]},"announce":[],"urlList":[]}}